<mxfile host="app.diagrams.net" modified="2023-12-19T08:35:48.884Z" agent="Mozilla/5.0 (Windows NT 10.0; Win64; x64) AppleWebKit/537.36 (KHTML, like Gecko) Chrome/120.0.0.0 Safari/537.36" etag="Ziuh6j-Mi1ME8FDVC2s9" version="22.1.11" type="github">
  <diagram id="C5RBs43oDa-KdzZeNtuy" name="Page-1">
    <mxGraphModel dx="1363" dy="829" grid="1" gridSize="10" guides="1" tooltips="1" connect="1" arrows="1" fold="1" page="1" pageScale="1" pageWidth="827" pageHeight="1169" math="0" shadow="0">
      <root>
        <mxCell id="WIyWlLk6GJQsqaUBKTNV-0" />
        <mxCell id="WIyWlLk6GJQsqaUBKTNV-1" parent="WIyWlLk6GJQsqaUBKTNV-0" />
        <mxCell id="6M2s1T-CdseFFnocJwDW-27" style="edgeStyle=orthogonalEdgeStyle;rounded=0;orthogonalLoop=1;jettySize=auto;html=1;entryX=0.5;entryY=0;entryDx=0;entryDy=0;" parent="WIyWlLk6GJQsqaUBKTNV-1" source="WIyWlLk6GJQsqaUBKTNV-7" target="6M2s1T-CdseFFnocJwDW-26" edge="1">
          <mxGeometry relative="1" as="geometry">
            <mxPoint x="840" y="230" as="targetPoint" />
          </mxGeometry>
        </mxCell>
        <mxCell id="WIyWlLk6GJQsqaUBKTNV-7" value="Start runner" style="rounded=1;whiteSpace=wrap;html=1;fontSize=12;glass=0;strokeWidth=1;shadow=0;flipV=0;" parent="WIyWlLk6GJQsqaUBKTNV-1" vertex="1">
          <mxGeometry x="780" y="80" width="120" height="40" as="geometry" />
        </mxCell>
        <mxCell id="6M2s1T-CdseFFnocJwDW-54" style="edgeStyle=orthogonalEdgeStyle;rounded=0;orthogonalLoop=1;jettySize=auto;html=1;entryX=0.5;entryY=0;entryDx=0;entryDy=0;" parent="WIyWlLk6GJQsqaUBKTNV-1" source="6M2s1T-CdseFFnocJwDW-0" target="WIyWlLk6GJQsqaUBKTNV-7" edge="1">
          <mxGeometry relative="1" as="geometry" />
        </mxCell>
        <mxCell id="6M2s1T-CdseFFnocJwDW-0" value="" style="ellipse;whiteSpace=wrap;html=1;aspect=fixed;flipV=0;" parent="WIyWlLk6GJQsqaUBKTNV-1" vertex="1">
          <mxGeometry x="820" y="20" width="40" height="40" as="geometry" />
        </mxCell>
        <mxCell id="6M2s1T-CdseFFnocJwDW-119" style="edgeStyle=orthogonalEdgeStyle;rounded=0;orthogonalLoop=1;jettySize=auto;html=1;entryX=0.5;entryY=0;entryDx=0;entryDy=0;" parent="WIyWlLk6GJQsqaUBKTNV-1" source="6M2s1T-CdseFFnocJwDW-14" target="6M2s1T-CdseFFnocJwDW-21" edge="1">
          <mxGeometry relative="1" as="geometry" />
        </mxCell>
        <mxCell id="6M2s1T-CdseFFnocJwDW-14" value="" style="rhombus;whiteSpace=wrap;html=1;fillColor=#dae8fc;strokeColor=#6c8ebf;flipV=0;" parent="WIyWlLk6GJQsqaUBKTNV-1" vertex="1">
          <mxGeometry x="820" y="590" width="40" height="40" as="geometry" />
        </mxCell>
        <mxCell id="6M2s1T-CdseFFnocJwDW-22" value="" style="edgeStyle=orthogonalEdgeStyle;rounded=0;orthogonalLoop=1;jettySize=auto;html=1;" parent="WIyWlLk6GJQsqaUBKTNV-1" source="6M2s1T-CdseFFnocJwDW-14" target="6M2s1T-CdseFFnocJwDW-18" edge="1">
          <mxGeometry relative="1" as="geometry">
            <mxPoint x="520" y="695" as="targetPoint" />
            <mxPoint x="820" y="605" as="sourcePoint" />
            <Array as="points" />
          </mxGeometry>
        </mxCell>
        <mxCell id="6M2s1T-CdseFFnocJwDW-118" style="edgeStyle=orthogonalEdgeStyle;rounded=0;orthogonalLoop=1;jettySize=auto;html=1;entryX=0.5;entryY=0;entryDx=0;entryDy=0;" parent="WIyWlLk6GJQsqaUBKTNV-1" source="6M2s1T-CdseFFnocJwDW-18" target="6M2s1T-CdseFFnocJwDW-108" edge="1">
          <mxGeometry relative="1" as="geometry">
            <mxPoint x="490" y="720" as="targetPoint" />
          </mxGeometry>
        </mxCell>
        <mxCell id="6M2s1T-CdseFFnocJwDW-18" value="On push branch: &quot;Main&quot;" style="text;html=1;strokeColor=none;fillColor=none;align=center;verticalAlign=middle;whiteSpace=wrap;rounded=0;flipV=0;" parent="WIyWlLk6GJQsqaUBKTNV-1" vertex="1">
          <mxGeometry x="580" y="595" width="80" height="30" as="geometry" />
        </mxCell>
        <mxCell id="6M2s1T-CdseFFnocJwDW-65" style="edgeStyle=orthogonalEdgeStyle;rounded=0;orthogonalLoop=1;jettySize=auto;html=1;entryX=0.5;entryY=0;entryDx=0;entryDy=0;" parent="WIyWlLk6GJQsqaUBKTNV-1" source="6M2s1T-CdseFFnocJwDW-21" target="6M2s1T-CdseFFnocJwDW-69" edge="1">
          <mxGeometry relative="1" as="geometry">
            <mxPoint x="840" y="780" as="targetPoint" />
          </mxGeometry>
        </mxCell>
        <mxCell id="6M2s1T-CdseFFnocJwDW-21" value="On push to arbitrary branch" style="text;html=1;strokeColor=none;fillColor=none;align=center;verticalAlign=middle;whiteSpace=wrap;rounded=0;flipV=0;" parent="WIyWlLk6GJQsqaUBKTNV-1" vertex="1">
          <mxGeometry x="810" y="660" width="60" height="50" as="geometry" />
        </mxCell>
        <mxCell id="6M2s1T-CdseFFnocJwDW-25" value="" style="edgeStyle=orthogonalEdgeStyle;rounded=0;orthogonalLoop=1;jettySize=auto;html=1;" parent="WIyWlLk6GJQsqaUBKTNV-1" source="6M2s1T-CdseFFnocJwDW-14" target="6M2s1T-CdseFFnocJwDW-19" edge="1">
          <mxGeometry relative="1" as="geometry">
            <mxPoint x="860" y="605" as="sourcePoint" />
            <mxPoint x="1200" y="735" as="targetPoint" />
            <Array as="points" />
          </mxGeometry>
        </mxCell>
        <mxCell id="6M2s1T-CdseFFnocJwDW-64" style="edgeStyle=orthogonalEdgeStyle;rounded=0;orthogonalLoop=1;jettySize=auto;html=1;entryX=0.5;entryY=0;entryDx=0;entryDy=0;" parent="WIyWlLk6GJQsqaUBKTNV-1" source="6M2s1T-CdseFFnocJwDW-19" target="6M2s1T-CdseFFnocJwDW-34" edge="1">
          <mxGeometry relative="1" as="geometry" />
        </mxCell>
        <mxCell id="6M2s1T-CdseFFnocJwDW-19" value="On push tag: v*.*.*" style="text;html=1;strokeColor=none;fillColor=none;align=center;verticalAlign=middle;whiteSpace=wrap;rounded=0;flipV=0;" parent="WIyWlLk6GJQsqaUBKTNV-1" vertex="1">
          <mxGeometry x="1010" y="595" width="60" height="30" as="geometry" />
        </mxCell>
        <mxCell id="6M2s1T-CdseFFnocJwDW-29" style="edgeStyle=orthogonalEdgeStyle;rounded=0;orthogonalLoop=1;jettySize=auto;html=1;entryX=0.5;entryY=0;entryDx=0;entryDy=0;" parent="WIyWlLk6GJQsqaUBKTNV-1" source="6M2s1T-CdseFFnocJwDW-26" target="6M2s1T-CdseFFnocJwDW-28" edge="1">
          <mxGeometry relative="1" as="geometry" />
        </mxCell>
        <mxCell id="6M2s1T-CdseFFnocJwDW-26" value="Checkout repository" style="rounded=1;whiteSpace=wrap;html=1;fontSize=12;glass=0;strokeWidth=1;shadow=0;flipV=0;" parent="WIyWlLk6GJQsqaUBKTNV-1" vertex="1">
          <mxGeometry x="780" y="150" width="120" height="40" as="geometry" />
        </mxCell>
        <mxCell id="6M2s1T-CdseFFnocJwDW-31" style="edgeStyle=orthogonalEdgeStyle;rounded=0;orthogonalLoop=1;jettySize=auto;html=1;entryX=0.5;entryY=0;entryDx=0;entryDy=0;" parent="WIyWlLk6GJQsqaUBKTNV-1" source="6M2s1T-CdseFFnocJwDW-28" target="6M2s1T-CdseFFnocJwDW-30" edge="1">
          <mxGeometry relative="1" as="geometry" />
        </mxCell>
        <mxCell id="6M2s1T-CdseFFnocJwDW-28" value="Setup .NET" style="rounded=1;whiteSpace=wrap;html=1;fontSize=12;glass=0;strokeWidth=1;shadow=0;flipV=0;" parent="WIyWlLk6GJQsqaUBKTNV-1" vertex="1">
          <mxGeometry x="780" y="220" width="120" height="40" as="geometry" />
        </mxCell>
        <mxCell id="6M2s1T-CdseFFnocJwDW-33" style="edgeStyle=orthogonalEdgeStyle;rounded=0;orthogonalLoop=1;jettySize=auto;html=1;entryX=0.5;entryY=0;entryDx=0;entryDy=0;" parent="WIyWlLk6GJQsqaUBKTNV-1" source="6M2s1T-CdseFFnocJwDW-30" target="6M2s1T-CdseFFnocJwDW-32" edge="1">
          <mxGeometry relative="1" as="geometry" />
        </mxCell>
        <mxCell id="6M2s1T-CdseFFnocJwDW-30" value="Restore dependencies" style="rounded=1;whiteSpace=wrap;html=1;fontSize=12;glass=0;strokeWidth=1;shadow=0;flipV=0;" parent="WIyWlLk6GJQsqaUBKTNV-1" vertex="1">
          <mxGeometry x="780" y="290" width="120" height="40" as="geometry" />
        </mxCell>
        <mxCell id="6M2s1T-CdseFFnocJwDW-32" value="Build" style="rounded=1;whiteSpace=wrap;html=1;fontSize=12;glass=0;strokeWidth=1;shadow=0;flipV=0;" parent="WIyWlLk6GJQsqaUBKTNV-1" vertex="1">
          <mxGeometry x="780" y="360" width="120" height="40" as="geometry" />
        </mxCell>
        <mxCell id="6M2s1T-CdseFFnocJwDW-41" style="edgeStyle=orthogonalEdgeStyle;rounded=0;orthogonalLoop=1;jettySize=auto;html=1;entryX=0.5;entryY=0;entryDx=0;entryDy=0;" parent="WIyWlLk6GJQsqaUBKTNV-1" source="6M2s1T-CdseFFnocJwDW-34" target="6M2s1T-CdseFFnocJwDW-36" edge="1">
          <mxGeometry relative="1" as="geometry" />
        </mxCell>
        <mxCell id="6M2s1T-CdseFFnocJwDW-34" value="Declare runtime targets for Linux, Windows and MacOSX Arm and x64" style="rounded=1;whiteSpace=wrap;html=1;fontSize=12;glass=0;strokeWidth=1;shadow=0;flipV=0;" parent="WIyWlLk6GJQsqaUBKTNV-1" vertex="1">
          <mxGeometry x="1161" y="720" width="160" height="80" as="geometry" />
        </mxCell>
        <mxCell id="6M2s1T-CdseFFnocJwDW-42" style="edgeStyle=orthogonalEdgeStyle;rounded=0;orthogonalLoop=1;jettySize=auto;html=1;entryX=0.5;entryY=0;entryDx=0;entryDy=0;" parent="WIyWlLk6GJQsqaUBKTNV-1" source="6M2s1T-CdseFFnocJwDW-36" target="6M2s1T-CdseFFnocJwDW-37" edge="1">
          <mxGeometry relative="1" as="geometry" />
        </mxCell>
        <mxCell id="6M2s1T-CdseFFnocJwDW-36" value="Build release for &quot;osx-arm64" style="rounded=1;whiteSpace=wrap;html=1;fontSize=12;glass=0;strokeWidth=1;shadow=0;flipV=0;" parent="WIyWlLk6GJQsqaUBKTNV-1" vertex="1">
          <mxGeometry x="1161" y="840" width="160" height="40" as="geometry" />
        </mxCell>
        <mxCell id="6M2s1T-CdseFFnocJwDW-43" style="edgeStyle=orthogonalEdgeStyle;rounded=0;orthogonalLoop=1;jettySize=auto;html=1;entryX=0.5;entryY=0;entryDx=0;entryDy=0;" parent="WIyWlLk6GJQsqaUBKTNV-1" source="6M2s1T-CdseFFnocJwDW-37" target="6M2s1T-CdseFFnocJwDW-38" edge="1">
          <mxGeometry relative="1" as="geometry" />
        </mxCell>
        <mxCell id="6M2s1T-CdseFFnocJwDW-37" value="Build release for &quot;osx-x64&quot;" style="rounded=1;whiteSpace=wrap;html=1;fontSize=12;glass=0;strokeWidth=1;shadow=0;flipV=0;" parent="WIyWlLk6GJQsqaUBKTNV-1" vertex="1">
          <mxGeometry x="1161" y="920" width="160" height="40" as="geometry" />
        </mxCell>
        <mxCell id="6M2s1T-CdseFFnocJwDW-44" style="edgeStyle=orthogonalEdgeStyle;rounded=0;orthogonalLoop=1;jettySize=auto;html=1;entryX=0.5;entryY=0;entryDx=0;entryDy=0;" parent="WIyWlLk6GJQsqaUBKTNV-1" source="6M2s1T-CdseFFnocJwDW-38" target="6M2s1T-CdseFFnocJwDW-40" edge="1">
          <mxGeometry relative="1" as="geometry" />
        </mxCell>
        <mxCell id="6M2s1T-CdseFFnocJwDW-38" value="Build release for &quot;win-x64&quot;" style="rounded=1;whiteSpace=wrap;html=1;fontSize=12;glass=0;strokeWidth=1;shadow=0;flipV=0;" parent="WIyWlLk6GJQsqaUBKTNV-1" vertex="1">
          <mxGeometry x="1161" y="1000" width="160" height="40" as="geometry" />
        </mxCell>
        <mxCell id="6M2s1T-CdseFFnocJwDW-66" style="edgeStyle=orthogonalEdgeStyle;rounded=0;orthogonalLoop=1;jettySize=auto;html=1;entryX=0.5;entryY=0;entryDx=0;entryDy=0;" parent="WIyWlLk6GJQsqaUBKTNV-1" source="6M2s1T-CdseFFnocJwDW-40" target="6M2s1T-CdseFFnocJwDW-45" edge="1">
          <mxGeometry relative="1" as="geometry" />
        </mxCell>
        <mxCell id="6M2s1T-CdseFFnocJwDW-40" value="Build release for &quot;linux-x64&quot;" style="rounded=1;whiteSpace=wrap;html=1;fontSize=12;glass=0;strokeWidth=1;shadow=0;flipV=0;" parent="WIyWlLk6GJQsqaUBKTNV-1" vertex="1">
          <mxGeometry x="1161" y="1080" width="160" height="40" as="geometry" />
        </mxCell>
        <mxCell id="6M2s1T-CdseFFnocJwDW-68" style="edgeStyle=orthogonalEdgeStyle;rounded=0;orthogonalLoop=1;jettySize=auto;html=1;entryX=0.5;entryY=0;entryDx=0;entryDy=0;" parent="WIyWlLk6GJQsqaUBKTNV-1" source="6M2s1T-CdseFFnocJwDW-45" target="6M2s1T-CdseFFnocJwDW-67" edge="1">
          <mxGeometry relative="1" as="geometry" />
        </mxCell>
        <mxCell id="6M2s1T-CdseFFnocJwDW-45" value="Compress releases to .zip and .tar" style="rounded=1;whiteSpace=wrap;html=1;fontSize=12;glass=0;strokeWidth=1;shadow=0;flipV=0;" parent="WIyWlLk6GJQsqaUBKTNV-1" vertex="1">
          <mxGeometry x="1161" y="1160" width="160" height="40" as="geometry" />
        </mxCell>
        <mxCell id="6M2s1T-CdseFFnocJwDW-47" value="" style="edgeStyle=orthogonalEdgeStyle;rounded=0;orthogonalLoop=1;jettySize=auto;html=1;entryX=0.5;entryY=0;entryDx=0;entryDy=0;" parent="WIyWlLk6GJQsqaUBKTNV-1" source="6M2s1T-CdseFFnocJwDW-32" target="6M2s1T-CdseFFnocJwDW-46" edge="1">
          <mxGeometry relative="1" as="geometry">
            <mxPoint x="1050" y="630" as="sourcePoint" />
            <mxPoint x="1050" y="820" as="targetPoint" />
          </mxGeometry>
        </mxCell>
        <mxCell id="6M2s1T-CdseFFnocJwDW-48" style="edgeStyle=orthogonalEdgeStyle;rounded=0;orthogonalLoop=1;jettySize=auto;html=1;entryX=0;entryY=0.5;entryDx=0;entryDy=0;" parent="WIyWlLk6GJQsqaUBKTNV-1" source="6M2s1T-CdseFFnocJwDW-59" target="6M2s1T-CdseFFnocJwDW-52" edge="1">
          <mxGeometry relative="1" as="geometry">
            <mxPoint x="1130" y="624" as="targetPoint" />
          </mxGeometry>
        </mxCell>
        <mxCell id="6M2s1T-CdseFFnocJwDW-60" style="edgeStyle=orthogonalEdgeStyle;rounded=0;orthogonalLoop=1;jettySize=auto;html=1;entryX=0.5;entryY=0;entryDx=0;entryDy=0;" parent="WIyWlLk6GJQsqaUBKTNV-1" target="6M2s1T-CdseFFnocJwDW-14" edge="1">
          <mxGeometry relative="1" as="geometry">
            <mxPoint x="840" y="594" as="sourcePoint" />
          </mxGeometry>
        </mxCell>
        <mxCell id="6M2s1T-CdseFFnocJwDW-46" value="" style="rhombus;whiteSpace=wrap;html=1;fillColor=#dae8fc;strokeColor=#6c8ebf;flipV=0;" parent="WIyWlLk6GJQsqaUBKTNV-1" vertex="1">
          <mxGeometry x="820" y="430" width="40" height="40" as="geometry" />
        </mxCell>
        <mxCell id="6M2s1T-CdseFFnocJwDW-52" value="Workflow fails" style="rounded=1;whiteSpace=wrap;html=1;fontSize=12;glass=0;strokeWidth=1;shadow=0;flipV=0;" parent="WIyWlLk6GJQsqaUBKTNV-1" vertex="1">
          <mxGeometry x="1000" y="430" width="120" height="40" as="geometry" />
        </mxCell>
        <mxCell id="6M2s1T-CdseFFnocJwDW-58" value="" style="edgeStyle=orthogonalEdgeStyle;rounded=0;orthogonalLoop=1;jettySize=auto;html=1;entryX=0;entryY=0.5;entryDx=0;entryDy=0;" parent="WIyWlLk6GJQsqaUBKTNV-1" source="6M2s1T-CdseFFnocJwDW-46" target="6M2s1T-CdseFFnocJwDW-59" edge="1">
          <mxGeometry relative="1" as="geometry">
            <mxPoint x="1000" y="454" as="targetPoint" />
            <mxPoint x="860" y="454" as="sourcePoint" />
          </mxGeometry>
        </mxCell>
        <mxCell id="6M2s1T-CdseFFnocJwDW-59" value="Build fails" style="text;html=1;strokeColor=none;fillColor=none;align=center;verticalAlign=middle;whiteSpace=wrap;rounded=0;flipV=0;" parent="WIyWlLk6GJQsqaUBKTNV-1" vertex="1">
          <mxGeometry x="890" y="435" width="60" height="30" as="geometry" />
        </mxCell>
        <mxCell id="6M2s1T-CdseFFnocJwDW-61" value="" style="edgeStyle=orthogonalEdgeStyle;rounded=0;orthogonalLoop=1;jettySize=auto;html=1;entryX=0.5;entryY=0;entryDx=0;entryDy=0;" parent="WIyWlLk6GJQsqaUBKTNV-1" source="6M2s1T-CdseFFnocJwDW-46" target="6M2s1T-CdseFFnocJwDW-62" edge="1">
          <mxGeometry relative="1" as="geometry">
            <mxPoint x="840" y="470" as="sourcePoint" />
            <mxPoint x="840" y="550" as="targetPoint" />
          </mxGeometry>
        </mxCell>
        <mxCell id="6M2s1T-CdseFFnocJwDW-63" style="edgeStyle=orthogonalEdgeStyle;rounded=0;orthogonalLoop=1;jettySize=auto;html=1;entryX=0.5;entryY=0;entryDx=0;entryDy=0;" parent="WIyWlLk6GJQsqaUBKTNV-1" source="6M2s1T-CdseFFnocJwDW-62" target="6M2s1T-CdseFFnocJwDW-14" edge="1">
          <mxGeometry relative="1" as="geometry" />
        </mxCell>
        <mxCell id="6M2s1T-CdseFFnocJwDW-62" value="Build successful" style="text;html=1;strokeColor=none;fillColor=none;align=center;verticalAlign=middle;whiteSpace=wrap;rounded=0;flipV=0;" parent="WIyWlLk6GJQsqaUBKTNV-1" vertex="1">
          <mxGeometry x="810" y="495" width="60" height="30" as="geometry" />
        </mxCell>
        <mxCell id="6M2s1T-CdseFFnocJwDW-162" style="edgeStyle=orthogonalEdgeStyle;rounded=0;orthogonalLoop=1;jettySize=auto;html=1;entryX=0.5;entryY=0;entryDx=0;entryDy=0;" parent="WIyWlLk6GJQsqaUBKTNV-1" source="6M2s1T-CdseFFnocJwDW-67" target="6M2s1T-CdseFFnocJwDW-161" edge="1">
          <mxGeometry relative="1" as="geometry" />
        </mxCell>
        <mxCell id="6M2s1T-CdseFFnocJwDW-67" value="Publish release to GitHub" style="rounded=1;whiteSpace=wrap;html=1;fontSize=12;glass=0;strokeWidth=1;shadow=0;flipV=0;" parent="WIyWlLk6GJQsqaUBKTNV-1" vertex="1">
          <mxGeometry x="1161" y="1240" width="160" height="40" as="geometry" />
        </mxCell>
        <mxCell id="6M2s1T-CdseFFnocJwDW-69" value="Test Chirp.CoreTests" style="rounded=1;whiteSpace=wrap;html=1;fontSize=12;glass=0;strokeWidth=1;shadow=0;flipV=0;" parent="WIyWlLk6GJQsqaUBKTNV-1" vertex="1">
          <mxGeometry x="760" y="750" width="160" height="40" as="geometry" />
        </mxCell>
        <mxCell id="6M2s1T-CdseFFnocJwDW-73" value="" style="edgeStyle=orthogonalEdgeStyle;rounded=0;orthogonalLoop=1;jettySize=auto;html=1;entryX=0;entryY=0.5;entryDx=0;entryDy=0;" parent="WIyWlLk6GJQsqaUBKTNV-1" source="6M2s1T-CdseFFnocJwDW-72" target="6M2s1T-CdseFFnocJwDW-74" edge="1">
          <mxGeometry relative="1" as="geometry">
            <mxPoint x="1000" y="904" as="targetPoint" />
            <mxPoint x="860" y="904" as="sourcePoint" />
          </mxGeometry>
        </mxCell>
        <mxCell id="6M2s1T-CdseFFnocJwDW-78" style="edgeStyle=orthogonalEdgeStyle;rounded=0;orthogonalLoop=1;jettySize=auto;html=1;entryX=0;entryY=0.5;entryDx=0;entryDy=0;" parent="WIyWlLk6GJQsqaUBKTNV-1" source="6M2s1T-CdseFFnocJwDW-74" target="6M2s1T-CdseFFnocJwDW-77" edge="1">
          <mxGeometry relative="1" as="geometry" />
        </mxCell>
        <mxCell id="6M2s1T-CdseFFnocJwDW-74" value="Test fails" style="text;html=1;strokeColor=none;fillColor=none;align=center;verticalAlign=middle;whiteSpace=wrap;rounded=0;flipV=0;" parent="WIyWlLk6GJQsqaUBKTNV-1" vertex="1">
          <mxGeometry x="890" y="835" width="60" height="30" as="geometry" />
        </mxCell>
        <mxCell id="6M2s1T-CdseFFnocJwDW-76" value="Test successful" style="text;html=1;strokeColor=none;fillColor=none;align=center;verticalAlign=middle;whiteSpace=wrap;rounded=0;flipV=0;" parent="WIyWlLk6GJQsqaUBKTNV-1" vertex="1">
          <mxGeometry x="810" y="900" width="60" height="30" as="geometry" />
        </mxCell>
        <mxCell id="6M2s1T-CdseFFnocJwDW-77" value="Workflow fails" style="rounded=1;whiteSpace=wrap;html=1;fontSize=12;glass=0;strokeWidth=1;shadow=0;flipV=0;" parent="WIyWlLk6GJQsqaUBKTNV-1" vertex="1">
          <mxGeometry x="980" y="830" width="120" height="40" as="geometry" />
        </mxCell>
        <mxCell id="6M2s1T-CdseFFnocJwDW-90" style="edgeStyle=orthogonalEdgeStyle;rounded=0;orthogonalLoop=1;jettySize=auto;html=1;entryX=0.5;entryY=0;entryDx=0;entryDy=0;" parent="WIyWlLk6GJQsqaUBKTNV-1" source="6M2s1T-CdseFFnocJwDW-79" target="6M2s1T-CdseFFnocJwDW-81" edge="1">
          <mxGeometry relative="1" as="geometry" />
        </mxCell>
        <mxCell id="6M2s1T-CdseFFnocJwDW-79" value="Test Chirp.CoreTests" style="rounded=1;whiteSpace=wrap;html=1;fontSize=12;glass=0;strokeWidth=1;shadow=0;flipV=0;" parent="WIyWlLk6GJQsqaUBKTNV-1" vertex="1">
          <mxGeometry x="760" y="960" width="160" height="40" as="geometry" />
        </mxCell>
        <mxCell id="6M2s1T-CdseFFnocJwDW-80" style="edgeStyle=orthogonalEdgeStyle;rounded=0;orthogonalLoop=1;jettySize=auto;html=1;entryX=0.5;entryY=0;entryDx=0;entryDy=0;" parent="WIyWlLk6GJQsqaUBKTNV-1" source="6M2s1T-CdseFFnocJwDW-76" target="6M2s1T-CdseFFnocJwDW-79" edge="1">
          <mxGeometry relative="1" as="geometry" />
        </mxCell>
        <mxCell id="6M2s1T-CdseFFnocJwDW-81" value="" style="rhombus;whiteSpace=wrap;html=1;fillColor=#dae8fc;strokeColor=#6c8ebf;flipV=0;" parent="WIyWlLk6GJQsqaUBKTNV-1" vertex="1">
          <mxGeometry x="820" y="1040" width="40" height="40" as="geometry" />
        </mxCell>
        <mxCell id="6M2s1T-CdseFFnocJwDW-82" value="" style="edgeStyle=orthogonalEdgeStyle;rounded=0;orthogonalLoop=1;jettySize=auto;html=1;entryX=0;entryY=0.5;entryDx=0;entryDy=0;" parent="WIyWlLk6GJQsqaUBKTNV-1" source="6M2s1T-CdseFFnocJwDW-81" target="6M2s1T-CdseFFnocJwDW-84" edge="1">
          <mxGeometry relative="1" as="geometry">
            <mxPoint x="1000" y="1144" as="targetPoint" />
            <mxPoint x="860" y="1144" as="sourcePoint" />
          </mxGeometry>
        </mxCell>
        <mxCell id="6M2s1T-CdseFFnocJwDW-122" style="edgeStyle=orthogonalEdgeStyle;rounded=0;orthogonalLoop=1;jettySize=auto;html=1;entryX=0;entryY=0.5;entryDx=0;entryDy=0;" parent="WIyWlLk6GJQsqaUBKTNV-1" source="6M2s1T-CdseFFnocJwDW-84" target="6M2s1T-CdseFFnocJwDW-89" edge="1">
          <mxGeometry relative="1" as="geometry" />
        </mxCell>
        <mxCell id="6M2s1T-CdseFFnocJwDW-84" value="Test fails" style="text;html=1;strokeColor=none;fillColor=none;align=center;verticalAlign=middle;whiteSpace=wrap;rounded=0;flipV=0;" parent="WIyWlLk6GJQsqaUBKTNV-1" vertex="1">
          <mxGeometry x="890" y="1045" width="60" height="30" as="geometry" />
        </mxCell>
        <mxCell id="6M2s1T-CdseFFnocJwDW-85" value="" style="edgeStyle=orthogonalEdgeStyle;rounded=0;orthogonalLoop=1;jettySize=auto;html=1;entryX=0.5;entryY=0;entryDx=0;entryDy=0;" parent="WIyWlLk6GJQsqaUBKTNV-1" source="6M2s1T-CdseFFnocJwDW-81" target="6M2s1T-CdseFFnocJwDW-86" edge="1">
          <mxGeometry relative="1" as="geometry">
            <mxPoint x="840" y="1160" as="sourcePoint" />
            <mxPoint x="840" y="1240" as="targetPoint" />
          </mxGeometry>
        </mxCell>
        <mxCell id="6M2s1T-CdseFFnocJwDW-91" style="edgeStyle=orthogonalEdgeStyle;rounded=0;orthogonalLoop=1;jettySize=auto;html=1;entryX=0.5;entryY=0;entryDx=0;entryDy=0;" parent="WIyWlLk6GJQsqaUBKTNV-1" source="6M2s1T-CdseFFnocJwDW-86" target="6M2s1T-CdseFFnocJwDW-87" edge="1">
          <mxGeometry relative="1" as="geometry" />
        </mxCell>
        <mxCell id="6M2s1T-CdseFFnocJwDW-86" value="Test succesful" style="text;html=1;strokeColor=none;fillColor=none;align=center;verticalAlign=middle;whiteSpace=wrap;rounded=0;flipV=0;" parent="WIyWlLk6GJQsqaUBKTNV-1" vertex="1">
          <mxGeometry x="810" y="1110" width="60" height="35" as="geometry" />
        </mxCell>
        <mxCell id="6M2s1T-CdseFFnocJwDW-101" style="edgeStyle=orthogonalEdgeStyle;rounded=0;orthogonalLoop=1;jettySize=auto;html=1;entryX=0.5;entryY=0;entryDx=0;entryDy=0;" parent="WIyWlLk6GJQsqaUBKTNV-1" source="6M2s1T-CdseFFnocJwDW-87" target="6M2s1T-CdseFFnocJwDW-92" edge="1">
          <mxGeometry relative="1" as="geometry" />
        </mxCell>
        <mxCell id="6M2s1T-CdseFFnocJwDW-87" value="Test Chirp.CoreTests" style="rounded=1;whiteSpace=wrap;html=1;fontSize=12;glass=0;strokeWidth=1;shadow=0;flipV=0;" parent="WIyWlLk6GJQsqaUBKTNV-1" vertex="1">
          <mxGeometry x="760" y="1180" width="160" height="40" as="geometry" />
        </mxCell>
        <mxCell id="6M2s1T-CdseFFnocJwDW-89" value="Workflow fails" style="rounded=1;whiteSpace=wrap;html=1;fontSize=12;glass=0;strokeWidth=1;shadow=0;flipV=0;" parent="WIyWlLk6GJQsqaUBKTNV-1" vertex="1">
          <mxGeometry x="980" y="1040" width="120" height="40" as="geometry" />
        </mxCell>
        <mxCell id="6M2s1T-CdseFFnocJwDW-92" value="" style="rhombus;whiteSpace=wrap;html=1;fillColor=#dae8fc;strokeColor=#6c8ebf;flipV=0;" parent="WIyWlLk6GJQsqaUBKTNV-1" vertex="1">
          <mxGeometry x="820" y="1250" width="40" height="40" as="geometry" />
        </mxCell>
        <mxCell id="6M2s1T-CdseFFnocJwDW-93" value="" style="edgeStyle=orthogonalEdgeStyle;rounded=0;orthogonalLoop=1;jettySize=auto;html=1;entryX=0;entryY=0.5;entryDx=0;entryDy=0;" parent="WIyWlLk6GJQsqaUBKTNV-1" source="6M2s1T-CdseFFnocJwDW-92" target="6M2s1T-CdseFFnocJwDW-95" edge="1">
          <mxGeometry relative="1" as="geometry">
            <mxPoint x="1000" y="1344" as="targetPoint" />
            <mxPoint x="860" y="1344" as="sourcePoint" />
          </mxGeometry>
        </mxCell>
        <mxCell id="6M2s1T-CdseFFnocJwDW-123" style="edgeStyle=orthogonalEdgeStyle;rounded=0;orthogonalLoop=1;jettySize=auto;html=1;entryX=0;entryY=0.5;entryDx=0;entryDy=0;" parent="WIyWlLk6GJQsqaUBKTNV-1" source="6M2s1T-CdseFFnocJwDW-95" target="6M2s1T-CdseFFnocJwDW-100" edge="1">
          <mxGeometry relative="1" as="geometry" />
        </mxCell>
        <mxCell id="6M2s1T-CdseFFnocJwDW-95" value="Test fails" style="text;html=1;strokeColor=none;fillColor=none;align=center;verticalAlign=middle;whiteSpace=wrap;rounded=0;flipV=0;" parent="WIyWlLk6GJQsqaUBKTNV-1" vertex="1">
          <mxGeometry x="890" y="1255" width="60" height="30" as="geometry" />
        </mxCell>
        <mxCell id="6M2s1T-CdseFFnocJwDW-96" value="" style="edgeStyle=orthogonalEdgeStyle;rounded=0;orthogonalLoop=1;jettySize=auto;html=1;entryX=0.5;entryY=0;entryDx=0;entryDy=0;" parent="WIyWlLk6GJQsqaUBKTNV-1" source="6M2s1T-CdseFFnocJwDW-92" target="6M2s1T-CdseFFnocJwDW-98" edge="1">
          <mxGeometry relative="1" as="geometry">
            <mxPoint x="840" y="1360" as="sourcePoint" />
            <mxPoint x="840" y="1440" as="targetPoint" />
          </mxGeometry>
        </mxCell>
        <mxCell id="6M2s1T-CdseFFnocJwDW-124" style="edgeStyle=orthogonalEdgeStyle;rounded=0;orthogonalLoop=1;jettySize=auto;html=1;entryX=0.5;entryY=0;entryDx=0;entryDy=0;" parent="WIyWlLk6GJQsqaUBKTNV-1" source="6M2s1T-CdseFFnocJwDW-98" target="6M2s1T-CdseFFnocJwDW-99" edge="1">
          <mxGeometry relative="1" as="geometry" />
        </mxCell>
        <mxCell id="6M2s1T-CdseFFnocJwDW-98" value="Test succesful" style="text;html=1;strokeColor=none;fillColor=none;align=center;verticalAlign=middle;whiteSpace=wrap;rounded=0;flipV=0;" parent="WIyWlLk6GJQsqaUBKTNV-1" vertex="1">
          <mxGeometry x="810" y="1320" width="60" height="35" as="geometry" />
        </mxCell>
        <mxCell id="6M2s1T-CdseFFnocJwDW-156" style="edgeStyle=orthogonalEdgeStyle;rounded=0;orthogonalLoop=1;jettySize=auto;html=1;entryX=0.5;entryY=0;entryDx=0;entryDy=0;" parent="WIyWlLk6GJQsqaUBKTNV-1" source="6M2s1T-CdseFFnocJwDW-99" target="6M2s1T-CdseFFnocJwDW-150" edge="1">
          <mxGeometry relative="1" as="geometry" />
        </mxCell>
        <mxCell id="6M2s1T-CdseFFnocJwDW-99" value="Test Chirp.CoreTests" style="rounded=1;whiteSpace=wrap;html=1;fontSize=12;glass=0;strokeWidth=1;shadow=0;flipV=0;" parent="WIyWlLk6GJQsqaUBKTNV-1" vertex="1">
          <mxGeometry x="760" y="1390" width="160" height="40" as="geometry" />
        </mxCell>
        <mxCell id="6M2s1T-CdseFFnocJwDW-100" value="Workflow fails" style="rounded=1;whiteSpace=wrap;html=1;fontSize=12;glass=0;strokeWidth=1;shadow=0;flipV=0;" parent="WIyWlLk6GJQsqaUBKTNV-1" vertex="1">
          <mxGeometry x="980" y="1250" width="120" height="40" as="geometry" />
        </mxCell>
        <mxCell id="6M2s1T-CdseFFnocJwDW-107" style="edgeStyle=orthogonalEdgeStyle;rounded=0;orthogonalLoop=1;jettySize=auto;html=1;entryX=0.5;entryY=0;entryDx=0;entryDy=0;" parent="WIyWlLk6GJQsqaUBKTNV-1" source="6M2s1T-CdseFFnocJwDW-108" target="6M2s1T-CdseFFnocJwDW-110" edge="1">
          <mxGeometry relative="1" as="geometry" />
        </mxCell>
        <mxCell id="6M2s1T-CdseFFnocJwDW-108" value="Test workflow as specified in switch branch &quot;On push to arbitrary brach&quot;" style="rounded=1;whiteSpace=wrap;html=1;fontSize=12;glass=0;strokeWidth=1;shadow=0;flipV=0;" parent="WIyWlLk6GJQsqaUBKTNV-1" vertex="1">
          <mxGeometry x="410" y="720" width="160" height="50" as="geometry" />
        </mxCell>
        <mxCell id="6M2s1T-CdseFFnocJwDW-109" style="edgeStyle=orthogonalEdgeStyle;rounded=0;orthogonalLoop=1;jettySize=auto;html=1;entryX=0.5;entryY=0;entryDx=0;entryDy=0;" parent="WIyWlLk6GJQsqaUBKTNV-1" source="6M2s1T-CdseFFnocJwDW-110" target="6M2s1T-CdseFFnocJwDW-112" edge="1">
          <mxGeometry relative="1" as="geometry" />
        </mxCell>
        <mxCell id="6M2s1T-CdseFFnocJwDW-110" value="Test completed successfully" style="rounded=1;whiteSpace=wrap;html=1;fontSize=12;glass=0;strokeWidth=1;shadow=0;flipV=0;" parent="WIyWlLk6GJQsqaUBKTNV-1" vertex="1">
          <mxGeometry x="410" y="800" width="160" height="40" as="geometry" />
        </mxCell>
        <mxCell id="6M2s1T-CdseFFnocJwDW-111" style="edgeStyle=orthogonalEdgeStyle;rounded=0;orthogonalLoop=1;jettySize=auto;html=1;entryX=0.5;entryY=0;entryDx=0;entryDy=0;" parent="WIyWlLk6GJQsqaUBKTNV-1" source="6M2s1T-CdseFFnocJwDW-112" edge="1" target="6M2s1T-CdseFFnocJwDW-125">
          <mxGeometry relative="1" as="geometry">
            <mxPoint x="490" y="940" as="targetPoint" />
          </mxGeometry>
        </mxCell>
        <mxCell id="6M2s1T-CdseFFnocJwDW-112" value="Publish for Linux" style="rounded=1;whiteSpace=wrap;html=1;fontSize=12;glass=0;strokeWidth=1;shadow=0;flipV=0;" parent="WIyWlLk6GJQsqaUBKTNV-1" vertex="1">
          <mxGeometry x="410" y="880" width="160" height="40" as="geometry" />
        </mxCell>
        <mxCell id="6M2s1T-CdseFFnocJwDW-120" value="" style="edgeStyle=orthogonalEdgeStyle;rounded=0;orthogonalLoop=1;jettySize=auto;html=1;entryX=0.5;entryY=0;entryDx=0;entryDy=0;" parent="WIyWlLk6GJQsqaUBKTNV-1" source="6M2s1T-CdseFFnocJwDW-69" target="6M2s1T-CdseFFnocJwDW-72" edge="1">
          <mxGeometry relative="1" as="geometry">
            <mxPoint x="840" y="790" as="sourcePoint" />
            <mxPoint x="840" y="880" as="targetPoint" />
          </mxGeometry>
        </mxCell>
        <mxCell id="6M2s1T-CdseFFnocJwDW-121" style="edgeStyle=orthogonalEdgeStyle;rounded=0;orthogonalLoop=1;jettySize=auto;html=1;entryX=0.5;entryY=0;entryDx=0;entryDy=0;" parent="WIyWlLk6GJQsqaUBKTNV-1" source="6M2s1T-CdseFFnocJwDW-72" target="6M2s1T-CdseFFnocJwDW-76" edge="1">
          <mxGeometry relative="1" as="geometry" />
        </mxCell>
        <mxCell id="6M2s1T-CdseFFnocJwDW-72" value="" style="rhombus;whiteSpace=wrap;html=1;fillColor=#dae8fc;strokeColor=#6c8ebf;flipV=0;" parent="WIyWlLk6GJQsqaUBKTNV-1" vertex="1">
          <mxGeometry x="820" y="830" width="40" height="40" as="geometry" />
        </mxCell>
        <mxCell id="6M2s1T-CdseFFnocJwDW-127" style="edgeStyle=orthogonalEdgeStyle;rounded=0;orthogonalLoop=1;jettySize=auto;html=1;entryX=1;entryY=0.5;entryDx=0;entryDy=0;" parent="WIyWlLk6GJQsqaUBKTNV-1" source="6M2s1T-CdseFFnocJwDW-129" target="6M2s1T-CdseFFnocJwDW-126" edge="1">
          <mxGeometry relative="1" as="geometry" />
        </mxCell>
        <mxCell id="6M2s1T-CdseFFnocJwDW-132" style="edgeStyle=orthogonalEdgeStyle;rounded=0;orthogonalLoop=1;jettySize=auto;html=1;entryX=0.5;entryY=0;entryDx=0;entryDy=0;" parent="WIyWlLk6GJQsqaUBKTNV-1" source="6M2s1T-CdseFFnocJwDW-134" target="6M2s1T-CdseFFnocJwDW-131" edge="1">
          <mxGeometry relative="1" as="geometry" />
        </mxCell>
        <mxCell id="6M2s1T-CdseFFnocJwDW-135" style="edgeStyle=orthogonalEdgeStyle;rounded=0;orthogonalLoop=1;jettySize=auto;html=1;" parent="WIyWlLk6GJQsqaUBKTNV-1" source="6M2s1T-CdseFFnocJwDW-125" target="6M2s1T-CdseFFnocJwDW-134" edge="1">
          <mxGeometry relative="1" as="geometry" />
        </mxCell>
        <mxCell id="6M2s1T-CdseFFnocJwDW-125" value="" style="rhombus;whiteSpace=wrap;html=1;fillColor=#dae8fc;strokeColor=#6c8ebf;flipV=0;" parent="WIyWlLk6GJQsqaUBKTNV-1" vertex="1">
          <mxGeometry x="470" y="960" width="40" height="40" as="geometry" />
        </mxCell>
        <mxCell id="6M2s1T-CdseFFnocJwDW-126" value="Workflow fails" style="rounded=1;whiteSpace=wrap;html=1;fontSize=12;glass=0;strokeWidth=1;shadow=0;flipV=0;" parent="WIyWlLk6GJQsqaUBKTNV-1" vertex="1">
          <mxGeometry x="200" y="960" width="140" height="40" as="geometry" />
        </mxCell>
        <mxCell id="6M2s1T-CdseFFnocJwDW-128" value="" style="edgeStyle=orthogonalEdgeStyle;rounded=0;orthogonalLoop=1;jettySize=auto;html=1;entryX=1;entryY=0.5;entryDx=0;entryDy=0;" parent="WIyWlLk6GJQsqaUBKTNV-1" source="6M2s1T-CdseFFnocJwDW-125" target="6M2s1T-CdseFFnocJwDW-129" edge="1">
          <mxGeometry relative="1" as="geometry">
            <mxPoint x="470" y="980" as="sourcePoint" />
            <mxPoint x="360" y="980" as="targetPoint" />
          </mxGeometry>
        </mxCell>
        <mxCell id="6M2s1T-CdseFFnocJwDW-129" value="Failure" style="text;html=1;strokeColor=none;fillColor=none;align=center;verticalAlign=middle;whiteSpace=wrap;rounded=0;flipV=0;" parent="WIyWlLk6GJQsqaUBKTNV-1" vertex="1">
          <mxGeometry x="380" y="965" width="50" height="30" as="geometry" />
        </mxCell>
        <mxCell id="6M2s1T-CdseFFnocJwDW-137" style="edgeStyle=orthogonalEdgeStyle;rounded=0;orthogonalLoop=1;jettySize=auto;html=1;entryX=0.5;entryY=0;entryDx=0;entryDy=0;" parent="WIyWlLk6GJQsqaUBKTNV-1" source="6M2s1T-CdseFFnocJwDW-131" target="6M2s1T-CdseFFnocJwDW-136" edge="1">
          <mxGeometry relative="1" as="geometry" />
        </mxCell>
        <mxCell id="6M2s1T-CdseFFnocJwDW-131" value="Upload artifacts" style="rounded=1;whiteSpace=wrap;html=1;fontSize=12;glass=0;strokeWidth=1;shadow=0;flipV=0;" parent="WIyWlLk6GJQsqaUBKTNV-1" vertex="1">
          <mxGeometry x="410" y="1070" width="160" height="40" as="geometry" />
        </mxCell>
        <mxCell id="6M2s1T-CdseFFnocJwDW-134" value="Success" style="text;html=1;strokeColor=none;fillColor=none;align=center;verticalAlign=middle;whiteSpace=wrap;rounded=0;flipV=0;" parent="WIyWlLk6GJQsqaUBKTNV-1" vertex="1">
          <mxGeometry x="460" y="1020" width="60" height="30" as="geometry" />
        </mxCell>
        <mxCell id="6M2s1T-CdseFFnocJwDW-139" style="edgeStyle=orthogonalEdgeStyle;rounded=0;orthogonalLoop=1;jettySize=auto;html=1;entryX=0.5;entryY=0;entryDx=0;entryDy=0;" parent="WIyWlLk6GJQsqaUBKTNV-1" source="6M2s1T-CdseFFnocJwDW-136" target="6M2s1T-CdseFFnocJwDW-138" edge="1">
          <mxGeometry relative="1" as="geometry" />
        </mxCell>
        <mxCell id="6M2s1T-CdseFFnocJwDW-136" value="Start new runner job" style="rounded=1;whiteSpace=wrap;html=1;fontSize=12;glass=0;strokeWidth=1;shadow=0;flipV=0;" parent="WIyWlLk6GJQsqaUBKTNV-1" vertex="1">
          <mxGeometry x="410" y="1150" width="160" height="40" as="geometry" />
        </mxCell>
        <mxCell id="6M2s1T-CdseFFnocJwDW-141" style="edgeStyle=orthogonalEdgeStyle;rounded=0;orthogonalLoop=1;jettySize=auto;html=1;entryX=0.5;entryY=0;entryDx=0;entryDy=0;" parent="WIyWlLk6GJQsqaUBKTNV-1" source="6M2s1T-CdseFFnocJwDW-138" target="6M2s1T-CdseFFnocJwDW-140" edge="1">
          <mxGeometry relative="1" as="geometry" />
        </mxCell>
        <mxCell id="6M2s1T-CdseFFnocJwDW-138" value="Download artifacts" style="rounded=1;whiteSpace=wrap;html=1;fontSize=12;glass=0;strokeWidth=1;shadow=0;flipV=0;" parent="WIyWlLk6GJQsqaUBKTNV-1" vertex="1">
          <mxGeometry x="410" y="1230" width="160" height="40" as="geometry" />
        </mxCell>
        <mxCell id="6M2s1T-CdseFFnocJwDW-143" style="edgeStyle=orthogonalEdgeStyle;rounded=0;orthogonalLoop=1;jettySize=auto;html=1;entryX=0.5;entryY=0;entryDx=0;entryDy=0;" parent="WIyWlLk6GJQsqaUBKTNV-1" source="6M2s1T-CdseFFnocJwDW-140" target="6M2s1T-CdseFFnocJwDW-142" edge="1">
          <mxGeometry relative="1" as="geometry" />
        </mxCell>
        <mxCell id="6M2s1T-CdseFFnocJwDW-140" value="Inspect downloaded artifacts for debugging purposes" style="rounded=1;whiteSpace=wrap;html=1;fontSize=12;glass=0;strokeWidth=1;shadow=0;flipV=0;" parent="WIyWlLk6GJQsqaUBKTNV-1" vertex="1">
          <mxGeometry x="410" y="1310" width="160" height="40" as="geometry" />
        </mxCell>
        <mxCell id="6M2s1T-CdseFFnocJwDW-164" style="edgeStyle=orthogonalEdgeStyle;rounded=0;orthogonalLoop=1;jettySize=auto;html=1;entryX=0.5;entryY=0;entryDx=0;entryDy=0;" parent="WIyWlLk6GJQsqaUBKTNV-1" source="6M2s1T-CdseFFnocJwDW-142" target="6M2s1T-CdseFFnocJwDW-163" edge="1">
          <mxGeometry relative="1" as="geometry" />
        </mxCell>
        <mxCell id="6M2s1T-CdseFFnocJwDW-142" value="Deploy artifacts to Azure Web App" style="rounded=1;whiteSpace=wrap;html=1;fontSize=12;glass=0;strokeWidth=1;shadow=0;flipV=0;" parent="WIyWlLk6GJQsqaUBKTNV-1" vertex="1">
          <mxGeometry x="410" y="1390" width="160" height="40" as="geometry" />
        </mxCell>
        <mxCell id="6M2s1T-CdseFFnocJwDW-150" value="" style="rhombus;whiteSpace=wrap;html=1;fillColor=#dae8fc;strokeColor=#6c8ebf;flipV=0;" parent="WIyWlLk6GJQsqaUBKTNV-1" vertex="1">
          <mxGeometry x="820" y="1470" width="40" height="40" as="geometry" />
        </mxCell>
        <mxCell id="6M2s1T-CdseFFnocJwDW-151" value="" style="edgeStyle=orthogonalEdgeStyle;rounded=0;orthogonalLoop=1;jettySize=auto;html=1;entryX=0;entryY=0.5;entryDx=0;entryDy=0;" parent="WIyWlLk6GJQsqaUBKTNV-1" source="6M2s1T-CdseFFnocJwDW-150" target="6M2s1T-CdseFFnocJwDW-153" edge="1">
          <mxGeometry relative="1" as="geometry">
            <mxPoint x="1000" y="1564" as="targetPoint" />
            <mxPoint x="860" y="1564" as="sourcePoint" />
          </mxGeometry>
        </mxCell>
        <mxCell id="6M2s1T-CdseFFnocJwDW-152" style="edgeStyle=orthogonalEdgeStyle;rounded=0;orthogonalLoop=1;jettySize=auto;html=1;entryX=0;entryY=0.5;entryDx=0;entryDy=0;" parent="WIyWlLk6GJQsqaUBKTNV-1" source="6M2s1T-CdseFFnocJwDW-153" target="6M2s1T-CdseFFnocJwDW-155" edge="1">
          <mxGeometry relative="1" as="geometry" />
        </mxCell>
        <mxCell id="6M2s1T-CdseFFnocJwDW-153" value="Test fails" style="text;html=1;strokeColor=none;fillColor=none;align=center;verticalAlign=middle;whiteSpace=wrap;rounded=0;flipV=0;" parent="WIyWlLk6GJQsqaUBKTNV-1" vertex="1">
          <mxGeometry x="890" y="1475" width="60" height="30" as="geometry" />
        </mxCell>
        <mxCell id="6M2s1T-CdseFFnocJwDW-154" value="" style="edgeStyle=orthogonalEdgeStyle;rounded=0;orthogonalLoop=1;jettySize=auto;html=1;entryX=0.5;entryY=0;entryDx=0;entryDy=0;" parent="WIyWlLk6GJQsqaUBKTNV-1" source="6M2s1T-CdseFFnocJwDW-150" edge="1">
          <mxGeometry relative="1" as="geometry">
            <mxPoint x="840" y="1570" as="sourcePoint" />
            <mxPoint x="840" y="1530" as="targetPoint" />
          </mxGeometry>
        </mxCell>
        <mxCell id="6M2s1T-CdseFFnocJwDW-155" value="Workflow fails" style="rounded=1;whiteSpace=wrap;html=1;fontSize=12;glass=0;strokeWidth=1;shadow=0;flipV=0;" parent="WIyWlLk6GJQsqaUBKTNV-1" vertex="1">
          <mxGeometry x="980" y="1470" width="120" height="40" as="geometry" />
        </mxCell>
        <mxCell id="6M2s1T-CdseFFnocJwDW-160" style="edgeStyle=orthogonalEdgeStyle;rounded=0;orthogonalLoop=1;jettySize=auto;html=1;entryX=0.5;entryY=0;entryDx=0;entryDy=0;" parent="WIyWlLk6GJQsqaUBKTNV-1" source="6M2s1T-CdseFFnocJwDW-158" target="6M2s1T-CdseFFnocJwDW-159" edge="1">
          <mxGeometry relative="1" as="geometry" />
        </mxCell>
        <mxCell id="6M2s1T-CdseFFnocJwDW-158" value="Test succesful" style="text;html=1;strokeColor=none;fillColor=none;align=center;verticalAlign=middle;whiteSpace=wrap;rounded=0;flipV=0;" parent="WIyWlLk6GJQsqaUBKTNV-1" vertex="1">
          <mxGeometry x="810" y="1540" width="60" height="30" as="geometry" />
        </mxCell>
        <mxCell id="6M2s1T-CdseFFnocJwDW-159" value="Workflow end" style="rounded=1;whiteSpace=wrap;html=1;fontSize=12;glass=0;strokeWidth=1;shadow=0;flipV=0;" parent="WIyWlLk6GJQsqaUBKTNV-1" vertex="1">
          <mxGeometry x="760" y="1620" width="160" height="40" as="geometry" />
        </mxCell>
        <mxCell id="6M2s1T-CdseFFnocJwDW-161" value="Workflow end" style="rounded=1;whiteSpace=wrap;html=1;fontSize=12;glass=0;strokeWidth=1;shadow=0;flipV=0;" parent="WIyWlLk6GJQsqaUBKTNV-1" vertex="1">
          <mxGeometry x="1161" y="1330" width="160" height="40" as="geometry" />
        </mxCell>
        <mxCell id="6M2s1T-CdseFFnocJwDW-163" value="Workflow end" style="rounded=1;whiteSpace=wrap;html=1;fontSize=12;glass=0;strokeWidth=1;shadow=0;flipV=0;" parent="WIyWlLk6GJQsqaUBKTNV-1" vertex="1">
          <mxGeometry x="410" y="1470" width="160" height="40" as="geometry" />
        </mxCell>
      </root>
    </mxGraphModel>
  </diagram>
</mxfile>
